<svg xmlns="http://www.w3.org/2000/svg" width="768" height="1024" viewBox="0 0 768 1024" style="image-rendering:pixelated" shape-rendering="crispEdges">
<title>Bedrock boundary</title>
<defs>
<pattern id="bedrock" width="64" height="64" patternUnits="userSpaceOnUse" shape-rendering="crispEdges">
<path fill="#222222" d="M48 4h4v4h-4zM4 8h4v4h-4zM16 8h4v4h-4zM20 12h4v4h-4zM0 16h4v4h-4zM36 20h4v4h-4zM56 20h4v4h-4zM60 24h4v4h-4zM36 28h4v4h-4zM12 36h4v4h-4zM32 40h4v4h-4zM0 44h4v4h-4zM60 44h4v4h-4zM20 52h4v4h-4zM40 52h4v4h-4zM4 60h4v4h-4zM16 60h4v4h-4zM44 60h4v4h-4z"/>
<path fill="#333333" d="M4 0h16v4h-16zM44 0h8v4h-8zM56 0h4v4h-4zM0 4h4v4h-4zM32 4h4v4h-4zM52 4h4v4h-4zM60 4h4v4h-4zM0 8h4v4h-4zM8 8h8v4h-8zM20 8h12v4h-12zM36 8h4v4h-4zM40 12h20v4h-20zM4 16h4v4h-4zM12 16h16v4h-16zM32 16h8v4h-8zM60 16h4v4h-4zM0 20h4v4h-4zM16 20h4v4h-4zM28 20h8v4h-8zM48 20h8v4h-8zM60 20h4v4h-4zM56 24h4v4h-4zM12 28h4v4h-4zM28 28h8v4h-8zM40 28h8v4h-8zM52 28h4v4h-4zM16 32h8v4h-8zM4 36h8v4h-8zM16 36h4v4h-4zM24 36h4v4h-4zM32 36h4v4h-4zM44 36h12v4h-12zM12 40h4v4h-4zM28 40h4v4h-4zM36 40h4v4h-4zM56 40h8v4h-8zM16 44h8v4h-8zM4 48h12v4h-12zM24 48h8v4h-8zM40 48h20v4h-20zM28 52h12v4h-12zM44 52h4v4h-4zM12 56h8v4h-8zM24 56h8v4h-8zM52 56h8v4h-8zM0 60h4v4h-4zM8 60h8v4h-8zM32 60h4v4h-4zM48 60h8v4h-8z"/>
<path fill="#575757" d="M20 0h4v4h-4zM32 0h4v4h-4zM40 0h4v4h-4zM52 0h4v4h-4zM60 0h4v4h-4zM56 4h4v4h-4zM40 8h12v4h-12zM56 8h4v4h-4zM0 12h4v4h-4zM16 12h4v4h-4zM24 12h4v4h-4zM32 12h8v4h-8zM60 12h4v4h-4zM28 16h4v4h-4zM4 20h12v4h-12zM20 20h8v4h-8zM40 20h8v4h-8zM12 24h4v4h-4zM32 24h4v4h-4zM0 28h12v4h-12zM16 28h12v4h-12zM48 28h4v4h-4zM60 28h4v4h-4zM12 32h4v4h-4zM24 32h8v4h-8zM0 36h4v4h-4zM20 36h4v4h-4zM28 36h4v4h-4zM40 36h4v4h-4zM4 44h12v4h-12zM24 44h4v4h-4zM40 44h4v4h-4zM0 48h4v4h-4zM20 48h4v4h-4zM60 48h4v4h-4zM16 52h4v4h-4zM24 52h4v4h-4zM48 52h4v4h-4zM8 56h4v4h-4zM20 56h4v4h-4zM32 56h4v4h-4zM48 56h4v4h-4zM60 56h4v4h-4zM36 60h4v4h-4zM56 60h4v4h-4z"/>
<path fill="#636363" d="M0 0h4v4h-4zM28 0h4v4h-4zM4 4h8v4h-8zM16 4h4v4h-4zM24 4h4v4h-4zM44 4h4v4h-4zM60 8h4v4h-4zM8 12h8v4h-8zM40 16h4v4h-4zM52 16h8v4h-8zM8 24h4v4h-4zM16 24h4v4h-4zM28 24h4v4h-4zM36 24h4v4h-4zM48 24h4v4h-4zM56 28h4v4h-4zM0 32h4v4h-4zM32 32h4v4h-4zM44 32h4v4h-4zM36 36h4v4h-4zM60 36h4v4h-4zM0 40h8v4h-8zM16 40h4v4h-4zM52 40h4v4h-4zM28 44h4v4h-4zM44 44h8v4h-8zM16 48h4v4h-4zM32 48h4v4h-4zM0 52h4v4h-4zM8 52h4v4h-4zM52 52h4v4h-4zM0 56h8v4h-8zM36 56h4v4h-4zM28 60h4v4h-4zM40 60h4v4h-4zM60 60h4v4h-4z"/>
<path fill="#979797" d="M24 0h4v4h-4zM36 0h4v4h-4zM12 4h4v4h-4zM20 4h4v4h-4zM28 4h4v4h-4zM36 4h8v4h-8zM32 8h4v4h-4zM52 8h4v4h-4zM4 12h4v4h-4zM28 12h4v4h-4zM8 16h4v4h-4zM44 16h8v4h-8zM0 24h8v4h-8zM20 24h8v4h-8zM40 24h8v4h-8zM52 24h4v4h-4zM4 32h8v4h-8zM36 32h8v4h-8zM48 32h16v4h-16zM56 36h4v4h-4zM8 40h4v4h-4zM20 40h8v4h-8zM40 40h12v4h-12zM32 44h8v4h-8zM52 44h8v4h-8zM36 48h4v4h-4zM4 52h4v4h-4zM12 52h4v4h-4zM56 52h8v4h-8zM40 56h8v4h-8zM20 60h8v4h-8z"/>
</pattern>
</defs>
<rect x="0" y="0" width="768" height="1024" fill="url(#bedrock)"/>
<rect x="512" y="576" width="64" height="64" fill="#000000" opacity="0.16"/>
<rect x="576" y="0" width="64" height="64" fill="#000000" opacity="0.16"/>
<rect x="576" y="384" width="64" height="64" fill="#000000" opacity="0.16"/>
<rect x="256" y="64" width="64" height="64" fill="#000000" opacity="0.16"/>
<rect x="384" y="768" width="64" height="64" fill="#000000" opacity="0.16"/>
<rect x="640" y="256" width="64" height="64" fill="#000000" opacity="0.16"/>
<rect x="64" y="896" width="64" height="64" fill="#000000" opacity="0.16"/>
<rect x="0" y="448" width="64" height="64" fill="#000000" opacity="0.16"/>
<rect x="0" y="128" width="64" height="64" fill="#000000" opacity="0.16"/>
<rect x="128" y="768" width="64" height="64" fill="#000000" opacity="0.16"/>
<rect x="640" y="704" width="64" height="64" fill="#000000" opacity="0.16"/>
<rect x="512" y="128" width="64" height="64" fill="#000000" opacity="0.16"/>
<rect x="384" y="0" width="64" height="64" fill="#000000" opacity="0.16"/>
<rect x="192" y="512" width="64" height="64" fill="#000000" opacity="0.16"/>
<rect x="384" y="192" width="64" height="64" fill="#000000" opacity="0.16"/>
<rect x="640" y="512" width="64" height="64" fill="#000000" opacity="0.16"/>
<rect x="640" y="192" width="64" height="64" fill="#000000" opacity="0.16"/>
<rect x="576" y="960" width="64" height="64" fill="#000000" opacity="0.16"/>
<rect x="256" y="256" width="64" height="64" fill="#000000" opacity="0.16"/>
<rect x="256" y="576" width="64" height="64" fill="#000000" opacity="0.16"/>
<rect x="256" y="128" width="64" height="64" fill="#000000" opacity="0.16"/>
<rect x="128" y="448" width="64" height="64" fill="#000000" opacity="0.16"/>
<rect x="704" y="640" width="64" height="64" fill="#000000" opacity="0.16"/>
<rect x="64" y="0" width="64" height="64" fill="#000000" opacity="0.16"/>
<rect x="384" y="576" width="64" height="64" fill="#000000" opacity="0.16"/>
<rect x="128" y="320" width="64" height="64" fill="#000000" opacity="0.16"/>
<rect x="448" y="640" width="64" height="64" fill="#000000" opacity="0.16"/>
<rect x="512" y="896" width="64" height="64" fill="#000000" opacity="0.16"/>
<rect x="640" y="640" width="64" height="64" fill="#000000" opacity="0.16"/>
<rect x="512" y="640" width="64" height="64" fill="#000000" opacity="0.16"/>
<rect x="64" y="0" width="64" height="64" fill="#000000" opacity="0.16"/>
<rect x="640" y="192" width="64" height="64" fill="#000000" opacity="0.16"/>
<rect x="448" y="960" width="64" height="64" fill="#000000" opacity="0.16"/>
<rect x="256" y="960" width="64" height="64" fill="#000000" opacity="0.16"/>
<rect x="256" y="512" width="64" height="64" fill="#000000" opacity="0.16"/>
<rect x="704" y="320" width="64" height="64" fill="#000000" opacity="0.16"/>
<rect x="640" y="320" width="64" height="64" fill="#000000" opacity="0.16"/>
<rect x="128" y="576" width="64" height="64" fill="#000000" opacity="0.16"/>
<rect x="384" y="448" width="64" height="64" fill="#000000" opacity="0.16"/>
<rect x="192" y="960" width="64" height="64" fill="#000000" opacity="0.16"/>
<rect x="320" y="832" width="64" height="64" fill="#000000" opacity="0.16"/>
<rect x="704" y="576" width="64" height="64" fill="#000000" opacity="0.16"/>
<rect x="512" y="768" width="64" height="64" fill="#000000" opacity="0.16"/>
<rect x="640" y="768" width="64" height="64" fill="#000000" opacity="0.16"/>
<rect x="256" y="960" width="64" height="64" fill="#000000" opacity="0.16"/>
<rect x="0" y="0" width="768" height="1024" fill="#05060a" opacity="0.13"/>
</svg>
